<?xml version="1.0" encoding="iso-8859-1"?>
<!-- Uploaded to: SVG Repo, www.svgrepo.com, Generator: SVG Repo Mixer Tools -->
<svg xmlns="http://www.w3.org/2000/svg" xmlns:xlink="http://www.w3.org/1999/xlink" version="1.1" id="Capa_1"  viewBox="0 0 455 455" xml:space="preserve" width="512" height="512">
<g>
	<rect x="220.001" y="130.5" style="fill:#3E8067;" width="15" height="100.998"/>
	
		<rect x="281.12" y="198.699" transform="matrix(0.4564 -0.8898 0.8898 0.4564 -3.0633 407.385)" style="fill:#3E8067;" width="101.475" height="15.001"/>
	
		<rect x="72.407" y="198.699" transform="matrix(-0.4564 -0.8898 0.8898 -0.4564 -4.1341 409.8729)" style="fill:#3E8067;" width="101.475" height="15.001"/>
	<polygon style="fill:#FF6761;" points="262.731,0 279.321,30.47 249.421,75.88 249.421,0  "/>
	<polygon style="fill:#FF9387;" points="249.421,0 264.761,45.88 227.701,85.11 175.681,30.47 192.261,0  "/>
	<path style="fill:#BE2A45;" d="M279.321,30.47c-3.73,0.39-7.39,1.02-10.96,1.88L252.4,145.1c20.56-8.68,35.96-28.1,35.96-54.06   c0-35.76,0-61.04,0-61.04C285.301,30,282.291,30.16,279.321,30.47z"/>
	<path style="fill:#E43349;" d="M268.361,32.35c0,7.05,0,29.34,0,58.69c0,25.96-6.83,45.38-15.96,54.06l-24.9-89.79l0.2-0.2   C238.711,44.1,252.691,36.08,268.361,32.35z"/>
	<path style="fill:#FF3B3B;" d="M175.681,30.468c20.19,2.11,38.28,11.21,51.82,24.84c15.4,15.5,24.9,36.86,24.9,60.45v29.34   c-7.75,3.29-16.23,5.04-24.9,5.04c-31.64,0-60.86-23.35-60.86-59.1c0-35.76,0-61.04,0-61.04   C169.701,29.998,172.711,30.158,175.681,30.468z"/>
	<polygon style="fill:#FF6761;" points="71.891,29.067 100.558,48.608 94.676,102.659 60.048,35.141  "/>
	<polygon style="fill:#FF9387;" points="60.048,35.141 94.635,68.965 79.562,120.784 8.339,95.905 9.187,61.227  "/>
	<path style="fill:#BE2A45;" d="M100.558,48.608c-3.141,2.049-6.11,4.28-8.894,6.675l37.253,107.608   c14.333-17.106,19.173-41.414,7.326-64.513c-16.319-31.819-27.856-54.313-27.856-54.313   C105.664,45.461,103.059,46.977,100.558,48.608z"/>
	<path style="fill:#E43349;" d="M91.663,55.283c3.217,6.273,13.39,26.107,26.784,52.222c11.847,23.099,14.632,43.496,10.47,55.386   L65.784,94.359l0.087-0.269C70.643,79.269,79.423,65.753,91.663,55.283z"/>
	<path style="fill:#FF3B3B;" d="M8.338,95.903c18.928-7.336,39.177-7.495,57.445-1.546c20.776,6.764,38.977,21.435,49.743,42.425   l13.39,26.107c-5.394,6.464-12.141,11.891-19.856,15.848c-28.153,14.439-64.809,6.997-81.124-24.813   C11.617,122.105,0.08,99.611,0.08,99.611C2.803,98.214,5.554,96.983,8.338,95.903z"/>
	<polygon style="fill:#FF6761;" points="445.806,61.222 446.662,95.906 399.334,122.666 433.962,55.148  "/>
	<polygon style="fill:#FF9387;" points="433.962,55.148 426.674,102.973 375.795,120.967 354.444,48.608 383.102,29.063  "/>
	<path style="fill:#BE2A45;" d="M446.662,95.906c-3.497-1.355-7.041-2.465-10.61-3.329l-65.656,93.041   c22.255,1.659,44.821-8.593,56.668-31.692c16.319-31.819,27.856-54.313,27.856-54.313   C452.197,98.216,449.446,96.985,446.662,95.906z"/>
	<path style="fill:#E43349;" d="M436.052,92.577c-3.217,6.273-13.39,26.107-26.784,52.222   c-11.847,23.099-26.787,37.262-38.872,40.819l18.821-91.258l0.269-0.087C404.307,89.501,420.406,88.744,436.052,92.577z"/>
	<path style="fill:#FF3B3B;" d="M354.445,48.606c17.002,11.091,28.946,27.444,34.773,45.751c6.629,20.82,5.334,44.161-5.431,65.151   l-13.39,26.107c-8.397-0.609-16.741-2.922-24.456-6.879c-28.153-14.439-43.497-48.551-27.182-80.361   c16.319-31.819,27.856-54.313,27.856-54.313C349.338,45.459,351.943,46.975,354.445,48.606z"/>
	<path style="fill:#7BFFCD;" d="M334.151,242.99c7.29,4.66,14.26,9.8,20.86,15.35c-0.01,0.01-102.51,131.66-102.51,131.66   l-27.98,5.55L334.151,242.99z"/>
	<path style="fill:#CAFFEB;" d="M290.381,222.05c15.53,5.19,30.21,12.26,43.77,20.94c-27.76,46.63-65.32,109.71-89.63,150.56   L207.501,410L290.381,222.05z"/>
	<path style="fill:#6CDFB4;" d="M227.501,211.862c-48.56,0-93.05,17.47-127.51,46.48c0.01,0.01,102.51,131.66,102.51,131.66   l19.626,14.353l68.254-182.303C270.621,215.442,249.481,211.862,227.501,211.862z"/>
	<polygon style="fill:#5DC09A;" points="252.501,390 256.881,418.5 227.501,438.5 198.121,418.5 202.501,390  "/>
	<polygon style="fill:#6CDFB4;" points="256.881,418.5 262.501,455 192.501,455 198.121,418.5  "/>
	<path style="fill:#3E8067;" d="M258.502,398.502h-62c-4.143,0-7.5-3.358-7.5-7.5s3.357-7.5,7.5-7.5h62c4.143,0,7.5,3.358,7.5,7.5   S262.644,398.502,258.502,398.502z"/>
</g>















</svg>