<?xml version="1.0" encoding="iso-8859-1"?>
<!-- Uploaded to: SVG Repo, www.svgrepo.com, Generator: SVG Repo Mixer Tools -->
<svg xmlns="http://www.w3.org/2000/svg" xmlns:xlink="http://www.w3.org/1999/xlink" version="1.1" id="Capa_1"  viewBox="0 0 455 455" xml:space="preserve" width="512" height="512">
<g>
	<path style="fill:#CC8073;" d="M352.5,72c0,0,0,26.08,0,53l-145,20l20-145c29.72,0,53,0,53,0c0,10.71,2.34,20.87,6.53,30.01v35.46   h35.46C331.62,69.66,341.79,72,352.5,72z"/>
	<path style="fill:#E59F8F;" d="M227.5,0v145l-125-20V0C102.7,0,175.11,0,227.5,0z"/>
	<path style="fill:#B26156;" d="M352.5,125c0,10.35,0,20.83,0,30l-155,40l30-70H352.5z"/>
	<polygon style="fill:#CC8073;" points="227.5,125 227.5,185 102.5,155 102.5,125  "/>
	<polygon style="fill:#FFE29E;" points="352.5,155 352.5,205 292.5,205 322.5,155  "/>
	<rect x="102.5" y="155" style="fill:#FFF1CF;" width="220" height="50"/>
	<rect x="132.504" y="30.001" style="fill:#CC8073;" width="65" height="65"/>
	<path style="fill:#B26156;" d="M257.504,95.001h65V65.453c-15.648-7.184-28.269-19.804-35.454-35.452h-29.546V95.001z"/>
	<path style="fill:#FFB751;" d="M332.5,195l-20,260h30c11,0,20-9,20-20V195H332.5z"/>
	<path style="fill:#FFD764;" d="M332.5,195v240c0,11-9,20-20,20h-200c-11,0-20-9-20-20V195H332.5z"/>
	<path style="fill:#E44670;" d="M265.98,249.75c-1.79,0-3.55,0.11-5.28,0.32l-33.14,150.15c2.5-1.38,82.44-45.77,82.44-106.45   C310,269.46,290.29,249.75,265.98,249.75z"/>
	<path style="fill:#FF6288;" d="M260.7,250.07c16.51,2.64,29.3,21.2,29.3,43.7c0,60.53-60.27,104.86-62.44,106.45   c-0.04,0.02-0.06,0.03-0.06,0.03S145,355.41,145,293.77c0-24.31,19.7-44.02,44.01-44.02c16.58,0,30.98,9.18,38.49,22.71   C234.19,260.39,246.38,251.78,260.7,250.07z"/>
</g>















</svg>