<?xml version="1.0" encoding="iso-8859-1"?>
<!-- Uploaded to: SVG Repo, www.svgrepo.com, Generator: SVG Repo Mixer Tools -->
<svg xmlns="http://www.w3.org/2000/svg" xmlns:xlink="http://www.w3.org/1999/xlink" version="1.1" id="Capa_1"  viewBox="0 0 455 455" xml:space="preserve" width="512" height="512">
<g>
	<path style="fill:#FF849B;" d="M400.72,352.791h-16.75L425,454.811h30C455,412.331,433.47,374.881,400.72,352.791z"/>
	<path style="fill:#FFA4A9;" d="M425,454.811H246l-37-20l18.49-44.9c9.19-14.75,21.41-27.42,35.79-37.12h120.69   C408.72,374.891,425,412.341,425,454.811z"/>
	<path style="fill:#FFC5BB;" d="M333.21,331.821l60.47,30.94c2.59-3.13,4.94-6.46,7.04-9.97   C381.41,339.751,358.21,332.061,333.21,331.821z"/>
	<path style="fill:#FFF1CF;" d="M393.68,362.761c-14.67,17.75-36.85,29.05-61.68,29.05c-29.21,0-54.76-15.65-68.72-39.02   c19.62-13.25,43.26-20.98,68.72-20.98c0.4,0,0.81,0,1.21,0.01C356.4,332.211,377.55,343.831,393.68,362.761z"/>
	<path style="fill:#B26156;" d="M423.2,307.431l-25.34-112.97h-21.55l3.93,137.35h23.46c11.04,0,20-8.95,20-20   C423.7,310.301,423.52,308.841,423.2,307.431z"/>
	<path style="fill:#CC8073;" d="M393.36,307.431c0.22,1.41,0.34,2.87,0.34,4.38c0,11.05-6.03,20-13.46,20H260.3   c-11.05,0-20-8.95-20-20c0-1.51,0.18-2.97,0.5-4.38l25.34-112.97h110.17L393.36,307.431z"/>
	<path style="fill:#FFC5BB;" d="M332,161.811v135c37.28,0,67.5-30.22,67.5-67.5v-20c0-5.101-0.566-10.07-1.638-14.847   C391.098,164.327,332,161.811,332,161.811z"/>
	<path style="fill:#FFF1CF;" d="M368.287,192.221c0.791,5.458,1.212,11.185,1.212,17.09v20c0,37.28-16.79,67.5-37.5,67.5   c-37.28,0-67.5-30.22-67.5-67.5v-20c0-20.56,9.192-38.973,23.69-51.353C299.98,147.889,364.083,163.216,368.287,192.221z"/>
	<path style="fill:#B26156;" d="M332,141.811l35.55,50.31c9.79,1.53,19.92,2.34,30.31,2.34   C391.1,164.331,364.18,141.811,332,141.811z"/>
	<path style="fill:#CC8073;" d="M332,141.811c17.06,0,31.41,21.36,35.55,50.31c-31.03-4.87-58.55-17.08-79.36-34.16   C299.98,147.891,315.28,141.811,332,141.811z"/>
	<path style="fill:#972041;" d="M313.257,231.678c-3.266,0-6.044-2.087-7.073-5h-9.927c-4.142,0-7.5-3.358-7.5-7.5   s3.358-7.5,7.5-7.5h17c4.142,0,7.5,3.358,7.5,7.5v5C320.757,228.32,317.399,231.678,313.257,231.678z"/>
	<path style="fill:#972041;" d="M350.743,231.678c-4.142,0-7.5-3.358-7.5-7.5v-5c0-4.142,3.358-7.5,7.5-7.5h17   c4.142,0,7.5,3.358,7.5,7.5s-3.358,7.5-7.5,7.5h-9.927C356.787,229.591,354.008,231.678,350.743,231.678z"/>
	<path style="fill:#FFA4A9;" d="M123,141.811v155c37.28,0,67.5-30.22,67.5-67.5v-20C190.5,172.031,160.28,141.811,123,141.811z"/>
	<path style="fill:#FFC5BB;" d="M123,141.811c20.71,0,37.5,30.22,37.5,67.5v20c0,37.28-16.79,67.5-37.5,67.5   c-37.28,0-67.5-30.22-67.5-67.5v-20C55.5,172.031,85.72,141.811,123,141.811z"/>
	<path style="fill:#972041;" d="M104.257,221.678c-3.266,0-6.044-2.087-7.073-5h-9.927c-4.142,0-7.5-3.358-7.5-7.5   s3.358-7.5,7.5-7.5h17c4.142,0,7.5,3.358,7.5,7.5v5C111.757,218.32,108.399,221.678,104.257,221.678z"/>
	<path style="fill:#972041;" d="M141.743,221.678c-4.142,0-7.5-3.358-7.5-7.5v-5c0-4.142,3.358-7.5,7.5-7.5h17   c4.142,0,7.5,3.358,7.5,7.5s-3.358,7.5-7.5,7.5h-9.927C147.787,219.591,145.008,221.678,141.743,221.678z"/>
	<path style="fill:#3E8067;" d="M246,454.811h-30l-55.97-112.86h11.94C215.53,360.871,246,404.281,246,454.811z"/>
	<path style="fill:#4DA081;" d="M216,454.811H0c0-50.53,30.47-93.94,74.03-112.86h86C192.97,360.881,216,404.291,216,454.811z"/>
	<path style="fill:#7BFFCD;" d="M171.97,341.951c-0.48,2.32-1.12,4.57-1.91,6.76l-45.86-16.89   C141.17,331.981,157.32,335.581,171.97,341.951z"/>
	<path style="fill:#CAFFEB;" d="M170.06,348.711c-6.92,19.3-25.38,33.1-47.06,33.1c-24.14,0-44.28-17.11-48.97-39.86   c15-6.52,31.56-10.14,48.97-10.14c0.4,0,0.8,0,1.2,0.01C140.92,332.101,156.58,338.221,170.06,348.711z"/>
	<path style="fill:#E44670;" d="M270.511,0.189c-1.899,0-3.765,0.117-5.6,0.339l-35.148,159.25   c2.652-1.464,87.436-48.544,87.436-112.902C317.199,21.094,296.294,0.189,270.511,0.189z"/>
	<path style="fill:#FF6288;" d="M264.911,0.529c17.511,2.8,31.076,22.485,31.076,46.348c0,64.198-63.923,111.215-66.224,112.902   c-0.042,0.021-0.064,0.032-0.064,0.032s-87.5-47.558-87.5-112.933c0-25.783,20.894-46.688,46.677-46.688   c17.585,0,32.858,9.736,40.823,24.086C236.794,11.474,249.723,2.342,264.911,0.529z"/>
</g>















</svg>