<?xml version="1.0" encoding="iso-8859-1"?>
<!-- Uploaded to: SVG Repo, www.svgrepo.com, Generator: SVG Repo Mixer Tools -->
<svg xmlns="http://www.w3.org/2000/svg" xmlns:xlink="http://www.w3.org/1999/xlink" version="1.1" id="Capa_1"  viewBox="0 0 455 455" xml:space="preserve" width="512" height="512">
<g>
	<path style="fill:#FF6761;" d="M167.5,116.035L227.5,455c0,0,217.5-118.195,217.5-280.723v-58.242H167.5z"/>
	<path style="fill:#FF9387;" d="M10,116.035v58.242C10,336.805,227.5,455,227.5,455V116.035H10z"/>
	<path style="fill:#CB2E3E;" d="M328.96,0c-3.47,0-6.91,0.15-10.3,0.46l-91.12,396.28C230.89,394.91,445,277.29,445,116.04   C445,51.95,393.05,0,328.96,0z"/>
	<path style="fill:#FF3B3B;" d="M318.66,0.46C367.05,5.63,405,55.4,405,116.04c0,161.12-174.46,278.69-177.46,280.7   C227.5,396.76,10,278.56,10,116.04C10,51.95,61.95,0,126.04,0c43.69,0,81.68,24.19,101.46,59.87   C245.71,27.03,279.35,3.92,318.66,0.46z"/>
	<polygon style="fill:#FFB751;" points="207.5,138.2 227.5,265.985 260,284.557 260,138.2  "/>
	<polygon style="fill:#FFD764;" points="195,138.2 195,284.557 227.5,265.985 227.5,138.2  "/>
	<path style="fill:#FFD764;" d="M117.622,86.307c0,0-15.122,22.327-15.122,55.749s15.122,55.749,15.122,55.749   C152.205,204.452,195,174.557,195,174.557l20-32.501l-20-32.501C195,109.554,152.205,79.659,117.622,86.307z"/>
	<path style="fill:#FFB751;" d="M337.38,86.31c-6.5-1.25-13.3-1.21-20.04-0.32l0.04,0.32V197.8l-0.04,0.32   c6.74,0.89,13.54,0.93,20.04-0.32c0,0,15.12-22.32,15.12-55.74C352.5,108.63,337.38,86.31,337.38,86.31z"/>
	<path style="fill:#FFD764;" d="M317.38,86.31c0,0,15.12,22.32,15.12,55.75c0,33.42-15.12,55.74-15.12,55.74l-0.04,0.32   c-29.13-3.85-57.34-23.56-57.34-23.56l-20-32.5l20-32.51c0,0,28.21-19.71,57.34-23.56L317.38,86.31z"/>
	<path style="fill:#FFF1CF;" d="M289.999,149.556H165c-4.143,0-7.5-3.358-7.5-7.5s3.357-7.5,7.5-7.5h124.999   c4.143,0,7.5,3.358,7.5,7.5S294.142,149.556,289.999,149.556z"/>
	<path style="fill:#FFF1CF;" d="M220,164.557v71.428c0,4.142,3.357,7.5,7.5,7.5s7.5-3.358,7.5-7.5v-71.428H220z"/>
	<rect x="195" y="109.554" style="fill:#FF973E;" width="65" height="65.002"/>
</g>















</svg>