<?xml version="1.0" encoding="iso-8859-1"?>
<!-- Uploaded to: SVG Repo, www.svgrepo.com, Generator: SVG Repo Mixer Tools -->
<svg xmlns="http://www.w3.org/2000/svg" xmlns:xlink="http://www.w3.org/1999/xlink" version="1.1" id="Capa_1"  viewBox="0 0 462.5 462.5" xml:space="preserve" width="512" height="512">
<g>
	<path style="fill:#5DC09A;" d="M231.248,309.259h-15c-4.143,0-7.5-3.358-7.5-7.5s3.357-7.5,7.5-7.5h15V309.259z"/>
	<path style="fill:#5DC09A;" d="M231.25,324.907h15c4.143,0,7.5,3.358,7.5,7.5s-3.357,7.5-7.5,7.5h-15V324.907z"/>
	<path style="fill:#5DC09A;" d="M231.248,431.852h-15c-4.143,0-7.5-3.358-7.5-7.5s3.357-7.5,7.5-7.5h15V431.852z"/>
	<path style="fill:#4DA081;" d="M231.25,402.342L72.82,311.783c-3.597-2.055-4.845-6.637-2.79-10.233   c2.056-3.596,6.638-4.845,10.233-2.789l150.986,86.304V402.342z"/>
	<path style="fill:#3E8067;" d="M223.75,251.111V455c0,4.142,3.357,7.5,7.5,7.5s7.5-3.358,7.5-7.5V251.111H223.75z"/>
	<polygon style="fill:#972041;" points="259.9,0 276.25,30 250.35,57.16 250.35,0  "/>
	<polygon style="fill:#E43349;" points="250.35,0 263.85,37.16 231.24,56 186.25,30 202.59,0  "/>
	<polygon style="fill:#FF6761;" points="294.92,30 331.25,96.67 275.82,146.29 275.82,30  "/>
	<polygon style="fill:#FF9387;" points="308.74,116.29 231.24,183.85 131.25,96.67 167.56,30 275.82,30  "/>
	<path style="fill:#972041;" d="M341.24,53.98c-10.26,0-20.29,0.99-29.99,2.89l-76.99,197.96l41.99,7.19   c37.15-15.71,65-50.81,65-97.74C341.25,99.66,341.25,53.98,341.24,53.98z"/>
	<path style="fill:#E43349;" d="M311.25,56.87c0,10.98,0,61.31,0,116.41c0,40.76-13.29,70.78-35,88.74l-45-162.3l0.37-0.37   C252.94,78.03,280.46,62.9,311.25,56.87z"/>
	<path style="fill:#FF3B3B;" d="M276.25,208.98v53.04c-14.01,5.92-29.34,9.09-45,9.09c-57.19,0-110-42.2-110-106.83   c0-64.62,0-110.3,0-110.3c43.03,0,81.93,17.48,110,45.74C259.07,127.73,276.25,166.33,276.25,208.98z"/>
	<path style="fill:#3E8067;" d="M392.47,301.55c-2.057-3.596-6.638-4.845-10.233-2.789L231.25,385.065v17.277l158.43-90.559   C393.276,309.728,394.524,305.146,392.47,301.55z"/>
	<path style="fill:#7BFFCD;" d="M147.963,282.753c-31.502-18.003-70.116-14.993-103.259,4.336l59.182,75.566l92.756,11.267   c-0.013-2.968-0.127-5.914-0.341-8.833C193.754,330.271,177.028,299.364,147.963,282.753z"/>
	<path style="fill:#5DC09A;" d="M44.704,287.089l69.412,54.89l82.526,31.943c-33.143,19.328-71.757,22.339-103.259,4.336   S44.874,325.456,44.704,287.089z"/>
	<path style="fill:#6CDFB4;" d="M44.704,287.089c5.416,29.188,25.86,57.971,57.362,75.974   c31.502,18.003,66.679,21.008,94.576,10.858L44.704,287.089z"/>
	<path style="fill:#7BFFCD;" d="M314.537,282.753c31.502-18.003,70.116-14.993,103.259,4.336l-59.182,75.566l-92.756,11.267   C266.028,335.554,283.035,300.756,314.537,282.753z"/>
	<path style="fill:#5DC09A;" d="M417.796,287.089l-69.412,54.89l-82.526,31.943c33.143,19.328,71.757,22.339,103.259,4.336   S417.626,325.456,417.796,287.089z"/>
	<path style="fill:#6CDFB4;" d="M417.796,287.089c-5.416,29.188-25.86,57.971-57.362,75.974   c-31.502,18.003-66.679,21.008-94.576,10.858L417.796,287.089z"/>
</g>















</svg>